<svg viewBox="0 0 64 64" fill="none" xmlns="http://www.w3.org/2000/svg"><g clip-path="url(#prefix__clip0_5_16)"><path fill-rule="evenodd" clip-rule="evenodd" d="M24.363 54.036h3.659V14.859c0-1.181-.38-2.194-1.152-3.038-1.571-1.643-4.092-1.665-5.65.013-.771.844-1.163 1.844-1.163 3.025v27.346h6.002c-.984 4.814-4.93 8.752-9.97 8.752-4.87 0-8.943-3.743-9.968-8.752h6.005V14.859c0-3.556 1.163-6.581 3.479-9.077C20.048.995 27.29.666 31.98 5.288c4.71-4.573 11.952-4.334 16.41.47 2.327 2.508 3.49 5.545 3.49 9.1v27.347h5.997c-.986 4.818-4.93 8.752-9.97 8.752-4.87 0-8.944-3.743-9.968-8.752h6.01V14.859c0-1.181-.39-2.194-1.185-3.038-1.545-1.664-4.076-1.647-5.616.013-.783.844-1.163 1.844-1.163 3.025v39.177h3.659a3.916 3.916 0 013.908 3.908v.147a3.916 3.916 0 01-3.908 3.908H24.363a3.916 3.916 0 01-3.909-3.908v-.147a3.916 3.916 0 013.909-3.908z" fill="#26784E"/></g><defs><clipPath id="prefix__clip0_5_16"><path fill="#fff" d="M0 0h64v64H0z"/></clipPath></defs></svg>